<svg xmlns="http://www.w3.org/2000/svg" viewBox="0 0 1366 335.73"><defs><style>.cls-1{fill:#289a9b;}.cls-2{fill:#747476;}</style></defs><g id="Capa_2" data-name="Capa 2"><g id="Capa_1-2" data-name="Capa 1"><path class="cls-1" d="M165.26,0C254.73-.4,330.38,72.56,329.92,165.72A165,165,0,0,1,0,164.63C0,72.28,75.72-.82,165.26,0Zm-.38,322.06c86.16.48,158-69.88,157.47-158.47A157.41,157.41,0,1,0,7.63,170C9.93,251.86,77.42,322.19,164.88,322.07Z"/><path class="cls-1" d="M193.34,117.75c-4.88-3.57-5.6-8.77-5.13-14.18.75-8.67,9.45-16,18.11-15.66,6.34.28,12.07,6,12.27,12.21a13.26,13.26,0,0,1-11.28,13.65c-3.7.46-7.74-2.76-8.48-6.76-.63-3.39,2.3-7.81,5.77-8.37a4,4,0,0,1,2.77,1.13,2.21,2.21,0,0,1,0,2.17c-2.77,2.14-.86,4.51-.7,6.8,5-.15,7.37-4.66,7.22-8.21A8.13,8.13,0,0,0,206,92.6a12.22,12.22,0,0,0-11.37,6.65,13,13,0,0,0,.82,14.73c5,7,15.06,7.62,22.13,1.62a19.14,19.14,0,0,0,4-25.24c-5.14-8.06-16.45-10.76-25.8-6.12-11,5.48-16,17.39-12.66,28.31,3.86,12.57,15.23,19.48,27.58,17.34,14.37-2.48,24.69-14.24,24.65-28.84a29.51,29.51,0,0,0-29.06-29.71,34.19,34.19,0,0,0-34.4,29.05c-3.16,21,11.45,37.58,29.52,40a39,39,0,0,0,39-19.07c14.32-24.27,0-54.66-27.22-59.95a42.53,42.53,0,0,0-45.94,22.87c-1.06,2.08-1.92,4.26-2.95,6.58-1-2.31-1.89-4.52-2.84-6.72-7.07-16.35-21.3-25.75-39.1-25.29a40.48,40.48,0,0,0-39.14,37c-1.67,21.82,13.5,40.11,34.31,42.91a34.83,34.83,0,0,0,39.37-28.44c3.09-17.94-7.12-34.36-24.57-39.58-15-4.49-31.73,3.34-36.78,18-7.43,21.6,9.08,41.43,29.73,39.44,9.18-.88,16-6,19.55-14.65,3.67-8.91,2.46-17.36-3.6-24.83-8.08-10-21.64-11.45-30.63-3.62-6,5.21-7.77,13.83-4.5,21.71a18.25,18.25,0,0,0,17.72,10.92c6.31-.36,11.82-6,12.32-12.59a13.71,13.71,0,0,0-10-14A8.4,8.4,0,0,0,117,93.7a7.9,7.9,0,0,0-1.11,8.76c1.13,2.61,3.11,4,6.26,4.58.12-2.39,2.34-4.6-.51-6.83a2.21,2.21,0,0,1-.08-2.14,4.32,4.32,0,0,1,2.92-1.17c3.67.7,6.4,5.19,5.51,8.63a8,8,0,0,1-9.57,6.08c-5.27-1.23-9.73-6.42-10-11.66a13.48,13.48,0,0,1,8.7-13.12c5-1.86,9.54-.51,13.6,2.27A17.72,17.72,0,0,1,138,113.68c-5.77,9.2-17.33,11.42-27.23,5.28a23.52,23.52,0,0,1-6.68-33.51,24.37,24.37,0,0,1,29.64-8,28.75,28.75,0,0,1,12.18,43.62c-8.22,11.36-23.3,15.1-36.71,9-10-4.56-16.65-12.34-19.17-23a32.49,32.49,0,0,1,5.6-27.91c7.11-9.66,16.64-14.65,28.42-14.44,16.13.29,27.21,9.56,32.94,24.13,4.95,12.58,4.52,25.73,4.55,38.85,0,12.28-.06,24.55,0,36.83.13,18.82.41,37.63.54,56.45q.31,40.6.5,81.2a15,15,0,0,0,.14,2c.55,3.75.41,4.07-3.31,3.69-7.34-.73-14.67-1.66-22-2.54a9.08,9.08,0,0,1-1.83-.7c1.07-2.91,2.31-5.67,3.08-8.55,2.92-10.92,6.08-21.8,8.44-32.85a257.52,257.52,0,0,0,5.68-43.84c.34-9.14,1-18.29.91-27.43-.19-13.17-4.43-25.17-13.11-35.13A43.73,43.73,0,0,0,111.82,142c-16-1.82-29.28,3.47-39.54,15.78-8.11,9.73-11,21.1-9.2,33.67A41,41,0,0,0,81,220.35c17.87,12.34,40.8,10.06,54.37-7.25a37.28,37.28,0,0,0,2.26-41.92c-7.54-12-18.53-18.23-32.81-18A29.33,29.33,0,0,0,87,159.43c-10.66,8.22-14.83,19.19-12.1,32.18,2.68,12.79,10.92,20.92,23.69,24.11,15,3.74,29.23-5.15,32.19-20.72,3.49-18.31-12.68-33.43-29.66-29.74-10,2.17-16.77,12.15-15.21,22.67a19.6,19.6,0,0,0,19.72,17,14.46,14.46,0,0,0,8.82-25.58c-3.63-3.06-7.71-4-12.15-2.38-3.56,1.29-5.51,5.45-4.83,9.61a7.88,7.88,0,0,0,7.42,6.6c.17-2.34,2.27-4.75-.85-6.87a2.49,2.49,0,0,1-.4-2.41,4.68,4.68,0,0,1,3.06-1.58c5.51.25,8.91,7.83,5.72,12.51-2.72,4-7.06,5.17-11.78,3.24a14.33,14.33,0,0,1-8.27-17.61,14.69,14.69,0,0,1,17.3-9.51,20.2,20.2,0,0,1,15.59,20.42A20.6,20.6,0,0,1,109,210.15c-11.4,2.48-24.51-5.93-27.87-18-2.69-9.65-.5-18.24,6.48-25.28s15.64-9.37,25.46-7a31.66,31.66,0,0,1,23.74,33.16c-.84,13.35-12.2,26-26.19,28.59-14.91,2.75-31.73-6.08-38.4-20.45-6.41-13.8-5.05-27.19,4.2-39.11a37,37,0,0,1,39.59-13.32c15.28,4.16,24.58,14.46,29.34,29.14a59,59,0,0,1,2.21,23.65c-.52,5.76-.33,11.59-.72,17.37-1.87,28-6.64,55.41-16.25,81.86-.32.86-.74,1.68-1.36,3.05-6.33-2.22-12.73-4.18-18.9-6.7a139.85,139.85,0,0,1-47-31.49,142,142,0,0,1-40.87-86.13c-3.13-30.6,2.86-59.31,18.1-85.93a141.26,141.26,0,0,1,58.52-56,138.3,138.3,0,0,1,42-14.07,143.65,143.65,0,0,1,45.34-.24c35.14,5.46,64.23,21.85,87.41,48.69a139,139,0,0,1,30.54,60.51A145,145,0,0,1,308,159.84a140.27,140.27,0,0,1-20.87,79.59,138.86,138.86,0,0,1-24.75,30.34,143,143,0,0,1-60.19,33.39c-2.4.65-2.66-.87-3.07-2.17-2.71-8.55-5.94-17-7.79-25.73-3-14.4-5.55-28.95-7.54-43.54-1.26-9.19-1.17-18.58-1.68-27.88-.35-6.36-.74-12.7.48-19.05,3-15.84,10.86-28.1,26.22-34.45,22.83-9.43,48.68,5.23,52,29.63,2.75,20.25-11.07,36.85-27.88,41.12a32.85,32.85,0,0,1-37.71-18.3c-5.3-11.85-1.8-27.45,8.14-35.83,6.31-5.31,13.4-8.15,21.7-7.91,12.63.36,24,12.13,24.46,24.74.59,15.23-12.12,27-25.48,26.86-9.69-.06-19-8.77-19.71-18.54-.79-10.1,6.72-19.86,16.45-21.39a14.87,14.87,0,0,1,16.89,11.37c1.57,7.74-3.44,15.1-11.5,16.88-4.34,1-8.9-2.22-10.07-7-.92-3.77,2-8.74,5.94-9.55a4.63,4.63,0,0,1,3.67,1.19c1.12,1.19.43,2.56-.88,3.64-2.31,1.92,0,3.93-.19,5.89,5.32.36,9.22-6.22,7-11.81-2.16-5.38-8.5-6-13.08-4.05a14.5,14.5,0,0,0-7.91,17.64A14.73,14.73,0,0,0,227,204.84c10.24-1.85,17-10.07,16.89-20-.09-10.33-6.77-18-16.92-20-9.29-1.77-20.24,4-25.13,12.41a26.24,26.24,0,0,0,30.38,38.18c13.91-3.94,23-15.6,23.31-30A31.51,31.51,0,0,0,229,153.62c-20.1-3.21-38.87,10.93-41.83,31.27a37.68,37.68,0,0,0,29,42.28c18.53,4.05,38.74-6.06,46.77-23.7,12.06-26.47-3.34-56.28-32.1-61.17-17.87-3-32.87,3.07-44,17.48-9.11,11.84-12.09,25.56-10.87,40.35.44,5.27.12,10.6.64,15.86,1.3,13.25,2.58,26.52,4.44,39.71a224.4,224.4,0,0,0,9.16,38.63c1.14,3.48,2.46,6.9,3.86,10.79-4.23.66-8.16,1.37-12.11,1.88-3.41.43-6.86.57-10.28,1-2.19.27-2.94-.46-3-2.72q-.15-40.11-.45-80.2-.22-35.69-.49-71.37c0-6.45,0-12.91,0-19.36-.08-9.66-.81-19.35-.24-29,1-17.7,11.55-33.51,29.69-37.82a34.8,34.8,0,0,1,36.57,13.93,34,34,0,0,1-22.37,53.06,29.28,29.28,0,0,1-33.89-32.39c1.67-14.87,16.3-26.42,31.06-24.78,11.6,1.29,21.08,12.55,20.58,24.47-.47,11.58-9.37,21.4-20.95,22.42-6,.52-11.57-.94-15.05-6.63l.13,0Z"/><path class="cls-2" d="M824.67,79.67a29,29,0,0,1,2.41-4.35c12.33-15.27,28.82-19.21,47.27-16.58C893.89,61.53,906.79,75,907.88,98c1.5,31.59.37,63.3.37,95.67h-24c-.15-2.93-.4-5.76-.41-8.59-.05-22.43,0-44.87-.13-67.3a81.17,81.17,0,0,0-1.35-15.26c-1.94-9.71-5.85-18.28-16.68-21-12.84-3.19-27.32,1.87-34.63,11.92-6.42,8.83-8.66,19-8.73,29.63-.14,20.73,0,41.46,0,62.18v8.52h-25c-.17-3-.44-5.64-.44-8.27,0-57.55.11-115.1-.19-172.65,0-7.28,2-9.85,9.31-10,16.16-.39,16.28-.57,16.28,15.24q0,26.7,0,53.4c0,2.31.2,4.61.31,6.92Z"/><path class="cls-2" d="M1244,170.22c8.55,17.4,7.29,20.25-11,24.1-16.88,3.55-33.87,4-50.62-.48-20.81-5.61-35.17-18.47-40.8-39.66-5.73-21.55-5.17-43,4.16-63.57,17.76-39.2,72.68-40.47,94.53-18.08,13.81,14.14,17.15,31.66,17,50.39,0,3.13-.67,6.26-1.17,10.69h-89.79c-3,22.67,11.22,40.19,33.47,41.78a120.79,120.79,0,0,0,22.58-.35C1229.6,174.2,1236.59,171.94,1244,170.22Zm-11.78-55.51c-.84-14-4-25.9-16.12-32.62-11.74-6.5-24.14-5.87-35.31,1.46-10.8,7.09-14.09,18.37-15,31.16Z"/><path class="cls-2" d="M506.37,111.11c3.08-18.75-3.78-29.75-21.13-31.25-11.4-1-23.18.76-34.61,2.44-5.72.85-8.35.3-9.92-5.62-3.11-11.71-2.62-13.17,9.37-15.56,17.32-3.45,34.73-4.91,52.05-.06C518.8,65.72,529.48,76.71,531,93.93c1.64,18.65,1.27,37.47,1.61,56.22.2,11.45.26,22.92-.09,34.37-.07,2.21-2,5.92-3.64,6.3-22.63,5.14-45.41,8.92-68.61,3.49-19.44-4.54-29.68-15.41-32.09-34-2.35-18.14,6.13-34.24,22.8-42.79,13.91-7.13,28.88-8.11,44.13-7.11C498.72,110.64,502.34,110.85,506.37,111.11Zm.84,20.32c-15.45-2.06-30-4.19-43.64,3.41C455.44,139.37,452,149,454,159.66c1.5,8,7.7,14.88,16.31,15.54,10.58.82,21.3.22,31.93-.33,1.74-.1,4.72-3.06,4.78-4.77C507.4,157.48,507.21,144.84,507.21,131.43Z"/><path class="cls-2" d="M743.21,111c3.61-20.56-5.9-32-27.31-32.13-9.62-.07-19.36,1.63-28.84,3.56-5.67,1.16-7.85-.45-9.36-5.58-3.47-11.74-2.69-13.38,9.17-15.7,17.33-3.4,34.68-4.86,52-.15,16.83,4.56,27.42,15.55,28.94,32.72,1.7,19.11,1.3,38.43,1.63,57.66.19,11.21.21,22.43-.12,33.63-.06,2-1.86,5.45-3.4,5.79-23.13,5.13-46.42,9.16-70,3.21C677,189.27,667,177.67,665,159c-1.88-17.66,7.09-33.72,23.46-41.79,13.76-6.78,28.47-7.74,43.45-6.82Zm1,20.52c-13.39-2.25-25.88-3.39-38.25.73-11.28,3.75-16.34,12.07-15.35,24.94.77,10,7.16,17.27,18.39,18.24,10,.86,20.28.09,30.38-.63,1.73-.12,4.55-3.55,4.62-5.53C744.43,156.94,744.21,144.56,744.21,131.55Z"/><path class="cls-2" d="M1007.12,111.12c2.81-18.15-4.17-29.57-20.86-31.19-11.61-1.13-23.67.63-35.32,2.44-5.84.91-8.23.17-9.82-5.56-3.27-11.83-2.84-14.13,9.08-15.38,15.1-1.58,30.65-3.32,45.56-1.43,23.34,3,35.12,15.23,36.33,38.66,1.57,30.34.39,60.83.39,91.65-22.39,5-44.53,8.72-67.34,5.1-21.81-3.46-35-16.33-36.67-36.26-1.79-21.13,9.62-39.14,30.7-44.73,11.77-3.12,24.45-2.92,36.74-3.93C999.49,110.19,1003.15,110.87,1007.12,111.12Zm.9,20.39c-14.53-2.06-28.23-4-41.53,2-9.39,4.18-13.68,12.77-12.54,24,.91,8.93,6.82,16.74,15.89,17.55,11,1,22.2.11,33.3-.43,1.69-.08,4.63-2.64,4.67-4.12C1008.18,157.67,1008,144.82,1008,131.51Z"/><path class="cls-2" d="M617,81.27H555v-19H658.11L585.53,173.65h66.78V194H642.7c-29.24,0-58.48,0-87.72-.07-2.39,0-4.78-1.11-7.17-1.7.79-2.4,1.11-5.11,2.44-7.17q31.89-49.42,64-98.71C615,85.14,615.6,83.87,617,81.27Z"/><path class="cls-2" d="M1271.71,191.61c.3-2.72.31-3.45.46-4.15,3.69-16.49,3.69-16.48,20.06-13.15,11.08,2.25,22.17,3.29,33.13-.5,9.38-3.24,14.91-9.89,15-17.76.13-9.51-5.77-14.64-13.66-17.89-9.88-4.06-20.17-7.2-29.85-11.68-16.35-7.57-23-17.91-21.75-32,1.56-17.82,11-29.4,28.22-33.81,18.43-4.72,36.73-2.91,54.67,2.67,1.57.49,2.59,3.69,3.23,5.82.36,1.2-.59,2.79-.94,4.21-2.57,10.5-2.68,10.71-13,7.79-11.21-3.17-22.45-4.35-33.84-1.46-6.48,1.65-11.86,4.86-12.57,12.38s3.12,12.79,9.43,15.91c5.86,2.89,12.17,4.85,18.3,7.17,5.46,2.07,11,3.91,16.4,6.12,26.69,11,26.48,47.23,7.39,62.55-14.66,11.76-31.87,14-49.67,12.77C1292.46,195.88,1282.29,193.37,1271.71,191.61Z"/><path class="cls-2" d="M1084.41,81.24c3-3.3,4.73-5.19,6.43-7.12,8.62-9.75,19.48-14,32.4-13.84,5.25.08,8.51,1.48,7.77,7.46a16.05,16.05,0,0,0,0,2.19c.19,12.41.19,12.41-11.93,13.25-18.25,1.26-31.05,13-32.08,31.67-1.21,21.84-.86,43.76-1.3,65.65-.29,14.95,3,13.76-14.09,13.84-10.91.06-10.92,0-10.92-11.22,0-38.22.16-76.45-.15-114.67,0-6.59,2.4-8.41,8.36-8.55,12.58-.29,13.81.61,14.94,13.39C1084.06,75.21,1084.15,77.15,1084.41,81.24Z"/><path class="cls-2" d="M436.07,318.07a25.48,25.48,0,0,1-10-9.56,27.89,27.89,0,0,1,0-27.52,25.76,25.76,0,0,1,10-9.56A29.28,29.28,0,0,1,450.38,268a29.84,29.84,0,0,1,11.68,2.23,23.94,23.94,0,0,1,8.93,6.47l-6.25,5.88a18.22,18.22,0,0,0-13.91-6.1,19.49,19.49,0,0,0-9.59,2.34,16.91,16.91,0,0,0-6.62,6.51,19.93,19.93,0,0,0,0,18.89,16.78,16.78,0,0,0,6.62,6.51,19.38,19.38,0,0,0,9.59,2.35,18.12,18.12,0,0,0,13.91-6.18l6.25,5.95a23.62,23.62,0,0,1-9,6.47,29.91,29.91,0,0,1-11.71,2.24A29.36,29.36,0,0,1,436.07,318.07Z"/><path class="cls-2" d="M515.09,303.9H483.93a10.77,10.77,0,0,0,4.28,7,14,14,0,0,0,8.59,2.57,14.45,14.45,0,0,0,10.78-4.32l5,5.73a16.9,16.9,0,0,1-6.77,4.84,26.88,26.88,0,0,1-20.75-1,18.73,18.73,0,0,1-7.7-7.25,20.5,20.5,0,0,1-2.72-10.53,20.78,20.78,0,0,1,2.64-10.45,18.72,18.72,0,0,1,7.33-7.25,21.3,21.3,0,0,1,10.56-2.6,20.85,20.85,0,0,1,10.38,2.56,18.17,18.17,0,0,1,7.14,7.22,21.87,21.87,0,0,1,2.56,10.74Q515.24,302.12,515.09,303.9Zm-27.48-13.21a11.16,11.16,0,0,0-3.76,7h22.54a11,11,0,0,0-3.64-7,11.14,11.14,0,0,0-7.59-2.68A11.28,11.28,0,0,0,487.61,290.69Z"/><path class="cls-2" d="M558.76,285q4.53,4.38,4.53,13v22.76H554V299.21q0-5.2-2.46-7.85a9.12,9.12,0,0,0-7-2.64,10.73,10.73,0,0,0-8.11,3.09q-3,3.09-3,8.89v20.08h-9.3V281.06H533v5.14a14.49,14.49,0,0,1,5.8-4.17,20.93,20.93,0,0,1,7.89-1.41Q554.21,280.62,558.76,285Z"/><path class="cls-2" d="M599,318.62a10.67,10.67,0,0,1-4,2,17.76,17.76,0,0,1-4.94.67q-6.55,0-10.12-3.42t-3.57-10V288.8h-6.54v-7.44h6.54v-9.07h9.3v9.07h10.64v7.44H585.68v18.89a6.32,6.32,0,0,0,1.41,4.43,5.33,5.33,0,0,0,4.09,1.52,8.12,8.12,0,0,0,5.21-1.64Z"/><path class="cls-2" d="M629.64,280.62v8.85a11.79,11.79,0,0,0-2.16-.23q-5.43,0-8.48,3.17t-3,9.11v19.26h-9.3V281.06h8.86v5.8Q619.51,280.62,629.64,280.62Z"/><path class="cls-2" d="M644.14,318.7a19,19,0,0,1-7.55-7.25,21.74,21.74,0,0,1,0-21,19.13,19.13,0,0,1,7.55-7.21,24.15,24.15,0,0,1,21.8,0,19.2,19.2,0,0,1,7.55,7.21,21.74,21.74,0,0,1,0,21,19.09,19.09,0,0,1-7.55,7.25,24.15,24.15,0,0,1-21.8,0Zm19.34-8.78a13.76,13.76,0,0,0,0-18A11.36,11.36,0,0,0,655,288.5a11.24,11.24,0,0,0-8.44,3.42,13.89,13.89,0,0,0,0,18,11.24,11.24,0,0,0,8.44,3.42A11.36,11.36,0,0,0,663.48,309.92Z"/><path class="cls-2" d="M710.49,268.72h9.67v52.06h-9.67Z"/><path class="cls-2" d="M767.92,285q4.53,4.38,4.53,13v22.76h-9.29V299.21q0-5.2-2.46-7.85a9.12,9.12,0,0,0-7-2.64,10.73,10.73,0,0,0-8.11,3.09q-3,3.09-3,8.89v20.08h-9.3V281.06h8.85v5.14A14.49,14.49,0,0,1,748,282a20.93,20.93,0,0,1,7.89-1.41Q763.37,280.62,767.92,285Z"/><path class="cls-2" d="M808.15,318.62a10.67,10.67,0,0,1-4,2,17.76,17.76,0,0,1-4.94.67q-6.56,0-10.12-3.42t-3.57-10V288.8H779v-7.44h6.54v-9.07h9.3v9.07h10.64v7.44H794.84v18.89a6.32,6.32,0,0,0,1.41,4.43,5.33,5.33,0,0,0,4.09,1.52,8.12,8.12,0,0,0,5.21-1.64Z"/><path class="cls-2" d="M851.67,303.9H820.5a10.81,10.81,0,0,0,4.28,7,14,14,0,0,0,8.59,2.57,14.45,14.45,0,0,0,10.78-4.32l5,5.73a16.83,16.83,0,0,1-6.77,4.84,26.88,26.88,0,0,1-20.75-1,18.73,18.73,0,0,1-7.7-7.25,20.5,20.5,0,0,1-2.72-10.53,20.78,20.78,0,0,1,2.64-10.45,18.78,18.78,0,0,1,7.33-7.25,21.3,21.3,0,0,1,10.56-2.6,20.85,20.85,0,0,1,10.38,2.56,18.17,18.17,0,0,1,7.14,7.22,21.87,21.87,0,0,1,2.57,10.74Q851.82,302.12,851.67,303.9Zm-27.49-13.21a11.15,11.15,0,0,0-3.75,7H843a11,11,0,0,0-3.64-7,11.1,11.1,0,0,0-7.59-2.68A11.28,11.28,0,0,0,824.18,290.69Z"/><path class="cls-2" d="M900.16,281.06v33.7q0,21-21.42,21a39.62,39.62,0,0,1-10.86-1.45,23.16,23.16,0,0,1-8.48-4.2l4.17-7a20.05,20.05,0,0,0,6.58,3.46,26,26,0,0,0,8.07,1.3q6.54,0,9.59-3t3.05-9.07v-2.08a15.38,15.38,0,0,1-5.8,3.94,20.47,20.47,0,0,1-7.51,1.34,21.58,21.58,0,0,1-10.23-2.42,18.11,18.11,0,0,1-7.21-6.81,19.07,19.07,0,0,1-2.64-10,18.88,18.88,0,0,1,2.64-10,17.92,17.92,0,0,1,7.21-6.73,21.79,21.79,0,0,1,10.23-2.38A21,21,0,0,1,885.4,282a14.53,14.53,0,0,1,5.91,4.31v-5.28ZM887.63,308a10.76,10.76,0,0,0,3.38-8.22,10.56,10.56,0,0,0-3.38-8.11,13.7,13.7,0,0,0-17.41,0,10.56,10.56,0,0,0-3.38,8.11,10.76,10.76,0,0,0,3.38,8.22,13.57,13.57,0,0,0,17.41,0Z"/><path class="cls-2" d="M935.34,280.62v8.85a11.69,11.69,0,0,0-2.15-.23q-5.43,0-8.48,3.17t-3.05,9.11v19.26h-9.3V281.06h8.85v5.8Q925.23,280.62,935.34,280.62Z"/><path class="cls-2" d="M971.6,284.82q4.65,4.2,4.65,12.68v23.28h-8.78V316a10.85,10.85,0,0,1-4.87,4A19.18,19.18,0,0,1,955,321.3a18.76,18.76,0,0,1-7.81-1.52,12.07,12.07,0,0,1-5.17-4.24,10.73,10.73,0,0,1-1.82-6.14,10.5,10.5,0,0,1,4-8.59q4-3.24,12.53-3.24H967V297a8.15,8.15,0,0,0-2.49-6.4c-1.66-1.48-4.13-2.23-7.4-2.23a21.49,21.49,0,0,0-6.58,1,16.46,16.46,0,0,0-5.47,2.9l-3.64-6.76a22.38,22.38,0,0,1,7.51-3.65,33.54,33.54,0,0,1,9.3-1.26Q967,280.62,971.6,284.82Zm-8.48,28.11a8.66,8.66,0,0,0,3.83-4.57v-4.61h-9.59q-8,0-8,5.28a4.77,4.77,0,0,0,2,4,9.23,9.23,0,0,0,5.58,1.48A12,12,0,0,0,963.12,312.93Z"/><path class="cls-2" d="M988.15,265.59h9.3v55.19h-9.3Z"/><path class="cls-2" d="M1069.07,265.59v55.19h-8.92v-5.13a14.47,14.47,0,0,1-5.69,4.24,19.28,19.28,0,0,1-7.48,1.41,20.88,20.88,0,0,1-10.3-2.53,18.14,18.14,0,0,1-7.18-7.17,21.55,21.55,0,0,1-2.6-10.68,21.3,21.3,0,0,1,2.6-10.63,18.19,18.19,0,0,1,7.18-7.14,20.88,20.88,0,0,1,10.3-2.53,18.75,18.75,0,0,1,7.22,1.34,14.56,14.56,0,0,1,5.58,4V265.59Zm-15,46.23a11,11,0,0,0,4.24-4.35,14.43,14.43,0,0,0,0-13.09,10.9,10.9,0,0,0-4.24-4.35,12.63,12.63,0,0,0-12,0,11,11,0,0,0-4.24,4.35,14.51,14.51,0,0,0,0,13.09,11.16,11.16,0,0,0,4.24,4.35,12.7,12.7,0,0,0,12,0Z"/><path class="cls-2" d="M1118.46,303.9H1087.3a10.8,10.8,0,0,0,4.27,7,14,14,0,0,0,8.59,2.57A14.47,14.47,0,0,0,1111,309.1l5,5.73a16.77,16.77,0,0,1-6.77,4.84,26.88,26.88,0,0,1-20.75-1,18.79,18.79,0,0,1-7.7-7.25,20.49,20.49,0,0,1-2.71-10.53,20.78,20.78,0,0,1,2.64-10.45,18.72,18.72,0,0,1,7.33-7.25,21.3,21.3,0,0,1,10.56-2.6,20.79,20.79,0,0,1,10.37,2.56,18.26,18.26,0,0,1,7.15,7.22,21.87,21.87,0,0,1,2.56,10.74Q1118.61,302.12,1118.46,303.9ZM1091,290.69a11.16,11.16,0,0,0-3.76,7h22.54a11,11,0,0,0-3.65-7,11.1,11.1,0,0,0-7.58-2.68A11.26,11.26,0,0,0,1091,290.69Z"/><path class="cls-2" d="M1153.46,319.81a24.29,24.29,0,0,1-8.89-4.53l3.34-7.52a26.24,26.24,0,0,0,7.85,4.13,28.44,28.44,0,0,0,9.34,1.6q5.79,0,8.66-1.86a5.63,5.63,0,0,0,2.87-4.91A4.79,4.79,0,0,0,1175,303a11.43,11.43,0,0,0-4.06-2.27q-2.45-.81-6.69-1.86a77.72,77.72,0,0,1-9.63-2.82,15.81,15.81,0,0,1-6.33-4.43,11.92,11.92,0,0,1-2.64-8.14,13.85,13.85,0,0,1,2.35-7.85,15.87,15.87,0,0,1,7.06-5.62,28.8,28.8,0,0,1,11.57-2.08,37.49,37.49,0,0,1,9.37,1.19,26.29,26.29,0,0,1,8,3.42l-3,7.52a29.84,29.84,0,0,0-7.14-3.05,26.52,26.52,0,0,0-7.22-1q-5.71,0-8.51,1.93a6,6,0,0,0-2.79,5.13,4.65,4.65,0,0,0,1.6,3.65,11.64,11.64,0,0,0,4,2.23q2.46.81,6.7,1.86a70,70,0,0,1,9.52,2.79,16.32,16.32,0,0,1,6.36,4.42,11.67,11.67,0,0,1,2.64,8,13.65,13.65,0,0,1-2.35,7.81,15.82,15.82,0,0,1-7.1,5.58,28.84,28.84,0,0,1-11.6,2.09A39.71,39.71,0,0,1,1153.46,319.81Z"/><path class="cls-2" d="M1223.45,284.82q4.65,4.2,4.65,12.68v23.28h-8.78V316a10.9,10.9,0,0,1-4.87,4,19.2,19.2,0,0,1-7.63,1.37,18.83,18.83,0,0,1-7.81-1.52,12.13,12.13,0,0,1-5.17-4.24,10.81,10.81,0,0,1-1.82-6.14,10.53,10.53,0,0,1,4-8.59q4-3.24,12.53-3.24h10.27V297a8.15,8.15,0,0,0-2.49-6.4c-1.66-1.48-4.13-2.23-7.4-2.23a21.55,21.55,0,0,0-6.59,1,16.4,16.4,0,0,0-5.46,2.9l-3.65-6.76a22.57,22.57,0,0,1,7.51-3.65,33.59,33.59,0,0,1,9.3-1.26Q1218.79,280.62,1223.45,284.82ZM1215,312.93a8.66,8.66,0,0,0,3.83-4.57v-4.61h-9.6q-8,0-8,5.28a4.75,4.75,0,0,0,2,4,9.23,9.23,0,0,0,5.58,1.48A12,12,0,0,0,1215,312.93Z"/><path class="cls-2" d="M1240,265.59h9.29v55.19H1240Z"/><path class="cls-2" d="M1300,281.06v39.72h-8.86v-5.06a14.7,14.7,0,0,1-5.57,4.13,18,18,0,0,1-7.22,1.45q-8,0-12.53-4.42t-4.58-13.13V281.06h9.3v21.42q0,5.36,2.42,8a8.85,8.85,0,0,0,6.88,2.64,10.42,10.42,0,0,0,7.92-3.09c2-2,2.94-5,2.94-8.89V281.06Z"/><path class="cls-2" d="M1351,265.59v55.19h-8.92v-5.13a14.4,14.4,0,0,1-5.69,4.24,19.28,19.28,0,0,1-7.48,1.41,20.9,20.9,0,0,1-10.3-2.53,18.05,18.05,0,0,1-7.17-7.17,21.45,21.45,0,0,1-2.61-10.68,21.2,21.2,0,0,1,2.61-10.63,18.1,18.1,0,0,1,7.17-7.14,20.9,20.9,0,0,1,10.3-2.53,18.75,18.75,0,0,1,7.22,1.34,14.56,14.56,0,0,1,5.58,4V265.59Zm-15,46.23a11,11,0,0,0,4.24-4.35,14.43,14.43,0,0,0,0-13.09,10.9,10.9,0,0,0-4.24-4.35,12.63,12.63,0,0,0-12,0,10.94,10.94,0,0,0-4.23,4.35,14.43,14.43,0,0,0,0,13.09,11.07,11.07,0,0,0,4.23,4.35,12.7,12.7,0,0,0,12,0Z"/></g></g></svg>